Patient4_TMGait_0pt7_01_left_33_EMG.mot
version=1
nRows=16
nColumns=33
inDegrees=no
endheader
time	1LAddLong	2LGlutMax	3LGlutMed	4LIliopsoas	5LSemiMemb	6LBicFemLong	7LRecFem	8LVastMed	9LVastLat	10LGasMed	11LTibAnt	12lTibPost	13LPeroneusLong	14LSol	15LExtDigLong	16LFlexDigLong	17RAddLong	18RGlutMax	19RGlutMed	20RIliopsoas	21RSemiMemb	22RBicFemLong	23RRecFem	24RVastMed	25RVastLat	26RGasMed	27RTibAnt	28RTibPost	29RPeroneusLong	30RSol	31RExtDigLong	32RFlexDigLong
38.537	-0.007172	0.81604	-0.15701	0.008698	-0.061798	0.47638	0.21622	-0.085449	0.080566	0.051727	0.022583	-0.02243	0.031281	0.072021	0.11871	0.13504	-0.02121	-0.22812	0.049286	0.005951	-0.17502	-0.032806	0.79208	-0.16861	-0.005951	-0.010986	0.22766	-0.011444	-0.14404	-0.002441	0.00412	0.000763
38.538	-0.03479	0.86029	-0.10284	0.005341	-0.096588	0.24582	0.40482	-0.048218	-0.04364	0.029297	0.039368	0.007935	0.067749	0.007629	0.13031	0.27039	-0.090179	-0.21362	-0.043793	-0.01297	-0.16815	0.06485	0.61279	-0.21072	0.005798	-0.005341	0.26413	-0.010376	-0.10941	-0.058594	-0.000458	-0.00885
38.539	-0.051422	0.91141	-0.031738	0.010071	-0.16144	0.079651	0.51178	-0.010071	-0.33859	0.017242	0.029449	0.027618	0.058746	-0.11749	0.14893	0.27252	-0.097351	-0.24643	-0.2684	0.023499	-0.14221	0.10681	0.49149	-0.16571	0.024719	0.001373	0.033264	-0.010223	-0.014343	-0.073242	0.003815	-0.005798
38.54	-0.07019	0.89935	-0.12192	-0.002747	-0.27649	0.070343	0.46478	0.004578	-0.62836	-0.020447	0.02533	-0.028839	-0.001831	-0.1355	0.15015	-0.36133	-0.062256	-0.26504	-0.18585	0.078278	-0.11505	0.10712	0.46005	-0.048981	0.030823	-0.001221	-0.033264	-0.008698	-0.014801	-0.11276	0.002136	-0.007935
38.541	-0.059662	0.85877	-0.12665	0.002594	-0.31189	-0.48126	0.34393	-0.009308	-0.78644	-0.011749	0.024261	-0.045013	-0.050507	-0.12787	0.12512	0.16007	-0.005798	-0.28397	-0.041656	0.007477	-0.090942	0.17654	0.38666	0.070953	0.051422	0.007935	-0.37018	-0.007477	0.17197	-0.16983	-0.001678	-0.008545
38.542	-0.025024	0.93887	-0.062256	0.0177	-0.1741	-1.3391	0.096893	-0.007935	-0.75012	0.002899	0.02121	0.003357	-0.044403	-0.12344	0.093231	0.12528	0.023651	-0.36377	0.112	-0.089722	-0.043182	0.19592	0.37125	0.14816	0.043335	0.014496	0.53467	-0.001373	0.21439	-0.16251	0.002136	0.002441
38.543	-0.000458	0.99548	0.031281	0.031738	-0.078125	-1.2972	-0.028534	-0.033569	-0.63858	-0.001373	0.024414	0.027313	-0.053558	-0.003815	0.036774	0.031738	-0.034027	-0.32211	0.23132	-0.13428	-0.014038	0.10086	0.38513	0.15839	0.061188	0.007782	0.47455	-0.009766	0.004578	-0.068359	0.000916	0.000153
38.544	0.017395	1.026	0.054474	-0.000153	0.084534	-0.77011	-0.010529	-0.03067	-0.51483	-0.036163	0.025787	0.01709	-0.015869	0.070038	0.027771	0.011139	-0.041046	-0.35523	0.045929	-0.086365	0.029144	0.021667	0.4274	0.16556	0.068207	0.000305	-0.1796	-0.009613	-0.009613	0.002899	-0.001984	-0.001831
38.545	0.019379	1.0422	0.1294	-0.00824	0.11063	-0.26947	-0.089874	-0.003967	-0.36713	-0.054474	0.03479	0.026703	-0.003967	0.054474	0.034943	0.009308	-0.049438	-0.40924	-0.28244	-0.071716	0.042114	0.079193	0.47302	0.17792	0.061188	-0.008392	-0.40955	-0.010834	-0.01297	0.023956	-0.000458	0.001221
38.546	0.032654	1.0771	0.12329	-0.003967	0.040436	-0.036469	-0.12405	-0.00473	-0.23789	-0.066986	0.030212	0.021057	-0.025177	0.000916	0.018005	0.002136	-0.064087	-0.41336	-0.39536	-0.024109	0.010223	0.13809	0.47455	0.26169	0.080719	-0.007019	-0.35538	-0.007629	-0.099182	0.062866	0.00061	0.01297
38.547	0.047302	1.1372	0.094452	0.001831	-0.014496	0.1004	-0.10315	0.00946	-0.26733	-0.04425	0.024261	0.031586	0.018005	0.065613	0.020447	0.00061	-0.068359	-0.53451	-0.30716	0.007935	-0.002441	0.16815	0.47974	0.31693	0.079498	-0.004883	0.052795	-0.008545	-0.063019	0.13992	0	0.000305
38.548	0.061951	1.2051	0.036011	-0.007019	-0.070801	0.25833	-0.11932	0.008392	-0.33157	-0.051422	0.026398	0.041199	0.042725	0.00061	0.016174	0.011292	-0.032349	-0.58197	-0.16144	0.035095	0.000763	0.21881	0.60013	0.27206	0.037384	-0.003052	0.011139	-0.00824	-0.033112	0.18921	-0.002594	0.00061
38.549	0.076294	1.2149	-0.10696	0.008698	-0.045624	0.32959	-0.25421	0.039215	-0.38101	-0.061493	0.014343	0.050964	0.032959	-0.13245	0.013123	0.004425	0.016937	-0.65933	-0.13534	0.072632	-0.026855	0.19363	0.63629	0.14236	0.001678	-0.004883	-0.12116	-0.009613	-0.063934	0.14358	0.000763	-0.006409
38.55	0.057678	1.2538	-0.11902	0.006714	-0.037689	0.2301	-0.2594	0.030518	-0.39475	-0.057678	0.02243	0.050964	0.023499	-0.10239	0.001678	-0.014496	0.098572	-0.73654	-0.10925	0.033569	-0.074463	0.12787	0.78003	0.032196	-0.055389	-0.007782	-0.084076	-0.008545	-0.081635	0.058136	-0.00061	-0.003815
38.551	0.04776	1.3824	-0.041199	0.020752	-0.10681	0.01236	-0.22415	0.027008	-0.37506	-0.06012	0.022736	0.068207	-0.009155	-0.037689	0.003662	-0.014191	0.12833	-0.73822	-0.027771	0.011902	-0.065918	0.038147	0.82626	-0.029907	-0.069275	-0.00061	-0.068512	-0.005035	-0.058136	0.037689	0.001526	0.001678
38.552	0.053711	1.2497	-0.066376	0.009766	-0.12909	-0.016022	-0.25803	0.03067	-0.26443	-0.049286	0.022888	0.049896	-0.046387	-0.035095	-0.010071	-0.016174	0.14587	-0.7634	-0.036469	0.008087	-0.1001	-0.028534	0.81955	-0.043945	-0.083618	-0.001831	0.011749	-0.00885	-0.063019	-0.008545	-0.000305	0.002136
